# xmcd CD database file
#
# Track frame offsets:
#	150
#	17290
#	35282
#	56969
#	72463
#	88592
#	100201
#	119319
#	137820
#	159033
#
# Disc length: 2310 seconds
#
# Revision: 0
# Processed by: cddbd v1.5.1PL0 Copyright (c) Steve Scherf et al.
# Submitted via: CDex 1.51
#
DISCID=7b09040a
DTITLE=Various Artist - Over Sea
DYEAR=2005
DGENRE=Pop
TTITLE0=The Doobie Brothers/What A Fool Believes
TTITLE1=Difang/Elders Drinking Song
TTITLE2=Barenaked Ladies/Pinch Me
TTITLE3=Emilia/Big Big World
TTITLE4=Solveig/Marie
TTITLE5=Zebrahead/Wannabe
TTITLE6=The Rolling Stones/She's A Rainbow
TTITLE7=Lenny Kravitz/It Ain't Over 'Til It's Over
TTITLE8=Alanis Morissette/Hands Clean
TTITLE9=Offspring/Pretty Fly
EXTD=YEAR: 2005
EXTT0=
EXTT1=
EXTT2=
EXTT3=
EXTT4=
EXTT5=
EXTT6=
EXTT7=
EXTT8=
EXTT9=
PLAYORDER=
